<svg width="755" height="401" viewBox="0 0 755 401" fill="none" xmlns="http://www.w3.org/2000/svg">
 <path
  d="M48.2814 348.203C19.1557 338.43 -0.696766 311.648 2.21562 281.915C5.02079 237.745 48.9635 209.92 90.6501 223.485C119.776 233.258 139.628 260.04 136.716 289.773C134.185 332.553 90.2421 360.38 48.2814 348.203ZM105.836 273.902C110.938 270.531 112.311 263.579 108.856 258.607C107.704 256.95 105.127 255.026 102.274 254.492C99.422 253.959 96.2951 254.816 94.5945 255.939L74.1865 269.423L60.3668 249.537C59.2151 247.88 56.6373 245.956 53.785 245.422C50.9327 244.889 47.8059 245.746 46.1052 246.869C41.0032 250.24 39.6307 257.192 43.0856 262.164L56.9054 282.05L36.4974 295.534C34.7967 296.658 32.8215 299.172 32.2725 301.953C31.7235 304.734 32.6007 307.781 33.7523 309.438C34.9039 311.096 37.4817 313.02 40.334 313.553C43.1864 314.087 46.3132 313.23 48.0138 312.106L66.7211 299.746L80.5409 319.632C81.6925 321.29 84.2703 323.214 87.1226 323.747C89.975 324.281 93.1018 323.424 94.8024 322.3C96.5031 321.176 98.4783 318.662 99.0273 315.881C99.5763 313.101 98.6992 310.053 97.5475 308.396L83.7278 288.509L105.836 273.902Z"
  stroke="black" stroke-opacity="0.9" stroke-width="2" />
 <path
  d="M307.273 230.942C313.992 185.238 349.823 148.24 396.852 143.888C466.276 135.182 522.263 191.767 513.305 257.058C506.586 302.761 470.755 339.759 423.726 344.112C356.542 352.817 300.551 296.232 307.273 230.942ZM412.532 298.408C443.885 298.408 468.519 274.468 468.519 244C468.519 213.531 443.885 189.591 412.532 189.591C381.179 189.591 356.545 213.531 356.545 244C356.545 274.468 381.179 298.408 412.532 298.408Z"
  stroke="black" stroke-opacity="0.9" stroke-width="2" />
 <path
  d="M310.292 312.142C313.176 348.548 292.047 383.104 256.51 394.332C204.454 412.666 151.242 378.35 146.629 326.448C143.745 290.043 164.874 255.486 200.411 244.259C250.739 226.299 303.953 260.614 310.292 312.142ZM258.809 277.451C258.041 274.091 254.199 273.16 252.47 273.535L185.043 288.147C181.585 288.896 178.896 293.005 179.28 294.685L194.651 361.889C195.42 365.249 199.262 366.18 200.991 365.806L270.144 350.82C273.602 350.07 274.562 346.336 274.178 344.655L258.809 277.451Z"
  stroke="black" stroke-opacity="0.9" stroke-width="2" />
 <path
  d="M651.049 282.68C545.012 277.378 477.148 178.294 508.637 83.3322C531.348 16.9769 595.097 -28.7375 666.5 -22.8436C772.538 -17.5417 840.401 81.5428 808.912 176.504C789.544 243.449 722.453 288.574 651.049 282.68ZM738.436 184.176L685.11 44.0938C682.975 37.0162 669.605 34.6577 665.054 40.5561L564.619 153.517C560.672 156.171 560.068 159.415 562.807 163.249C565.546 167.082 568.284 170.916 571.627 171.505L728.736 199.218C732.079 199.808 736.026 197.153 739.972 194.499C740.576 191.255 741.175 188.01 738.436 184.176Z"
  stroke="black" stroke-opacity="0.9" stroke-width="2" />
</svg>